<svg width="414" height="512" viewBox="0 0 414 512" fill="none" xmlns="http://www.w3.org/2000/svg">
<rect x="3.99999" y="66.9998" width="410" height="85" rx="42.5" fill="black"/>
<path d="M157.196 132.35C157.896 132.163 158.34 132 158.526 131.86C158.76 131.72 158.9 131.323 158.946 130.67C159.133 126.797 159.343 123.577 159.576 121.01C160.09 115.037 160.883 108.62 161.956 101.76C162.05 101.247 162.026 100.873 161.886 100.64C161.746 100.407 161.49 100.29 161.116 100.29C160.65 100.29 160.066 100.383 159.366 100.57C158.806 100.71 158.41 100.92 158.176 101.2C157.99 101.48 157.85 102.063 157.756 102.95C155.75 118.163 154.746 127.357 154.746 130.53C154.746 131.277 154.816 131.79 154.956 132.07C155.143 132.35 155.493 132.49 156.006 132.49C156.146 132.49 156.543 132.443 157.196 132.35ZM161.676 89.09C162.33 89.09 162.843 89.3 163.216 89.72C163.59 90.14 163.776 90.7233 163.776 91.47C163.776 92.8233 163.45 93.9433 162.796 94.83C162.143 95.7167 161.326 96.16 160.346 96.16C159.693 96.16 159.18 95.95 158.806 95.53C158.433 95.0633 158.246 94.4333 158.246 93.64C158.246 92.3333 158.573 91.26 159.226 90.42C159.88 89.5333 160.696 89.09 161.676 89.09ZM180.024 106.31C178.951 104.863 177.527 104.14 175.754 104.14C174.587 104.14 173.607 104.443 172.814 105.05C172.067 105.61 171.694 106.52 171.694 107.78C171.694 108.9 172.044 109.927 172.744 110.86C173.491 111.747 174.751 112.843 176.524 114.15C178.857 115.923 180.561 117.487 181.634 118.84C182.707 120.193 183.244 121.85 183.244 123.81C183.244 126.47 182.334 128.593 180.514 130.18C178.694 131.767 176.454 132.56 173.794 132.56C171.881 132.56 170.107 132.047 168.474 131.02C166.841 129.993 165.487 128.64 164.414 126.96C164.274 126.68 164.204 126.423 164.204 126.19C164.204 125.677 164.647 125.14 165.534 124.58C166.094 124.16 166.537 123.95 166.864 123.95C167.191 123.95 167.517 124.207 167.844 124.72C168.591 125.84 169.477 126.75 170.504 127.45C171.577 128.15 172.721 128.5 173.934 128.5C175.474 128.5 176.711 128.057 177.644 127.17C178.624 126.283 179.114 125.21 179.114 123.95C179.114 122.737 178.694 121.687 177.854 120.8C177.061 119.867 175.871 118.793 174.284 117.58L172.884 116.46C171.111 115.06 169.781 113.73 168.894 112.47C168.007 111.163 167.564 109.577 167.564 107.71C167.564 105.423 168.357 103.603 169.944 102.25C171.531 100.897 173.514 100.22 175.894 100.22C179.581 100.22 182.217 101.69 183.804 104.63C183.944 104.91 184.014 105.143 184.014 105.33C184.014 105.61 183.897 105.843 183.664 106.03C183.431 106.217 183.011 106.473 182.404 106.8C181.844 107.033 181.447 107.15 181.214 107.15C180.794 107.15 180.397 106.87 180.024 106.31ZM208.752 117.58C208.519 119.447 208.332 121.15 208.192 122.69C207.772 126.143 207.469 128.57 207.282 129.97C207.189 130.81 207.002 131.393 206.722 131.72C206.442 132 206.022 132.21 205.462 132.35C204.762 132.49 204.249 132.56 203.922 132.56C203.502 132.56 203.222 132.443 203.082 132.21C202.942 131.977 202.919 131.58 203.012 131.02C203.432 128.173 203.922 124.44 204.482 119.82C205.042 115.2 205.322 111.863 205.322 109.81C205.322 107.99 205.066 106.637 204.552 105.75C204.039 104.863 203.222 104.42 202.102 104.42C201.029 104.42 199.886 105.05 198.672 106.31C197.506 107.57 196.456 109.227 195.522 111.28C194.636 113.287 194.052 115.34 193.772 117.44L192.232 129.9C192.092 130.833 191.906 131.44 191.672 131.72C191.486 131.953 191.089 132.14 190.482 132.28C189.549 132.467 188.989 132.56 188.802 132.56C188.429 132.56 188.172 132.443 188.032 132.21C187.939 132.023 187.939 131.65 188.032 131.09C188.919 124.51 189.619 118.933 190.132 114.36C190.646 109.787 190.902 105.96 190.902 102.88C190.902 101.947 190.996 101.363 191.182 101.13C191.416 100.85 191.882 100.64 192.582 100.5C193.702 100.313 194.309 100.22 194.402 100.22C194.822 100.22 195.102 100.337 195.242 100.57C195.382 100.757 195.429 101.153 195.382 101.76L195.102 105.68C196.269 104 197.552 102.717 198.952 101.83C200.352 100.897 201.752 100.43 203.152 100.43C206.232 100.43 208.216 102.273 209.102 105.96C210.176 104.187 211.436 102.833 212.882 101.9C214.376 100.92 215.939 100.43 217.572 100.43C219.392 100.43 220.909 101.06 222.122 102.32C223.382 103.58 224.012 105.563 224.012 108.27C224.012 110.417 223.896 112.54 223.662 114.64C223.476 116.74 223.149 119.727 222.682 123.6L221.912 129.9C221.819 130.787 221.632 131.37 221.352 131.65C221.119 131.883 220.699 132.093 220.092 132.28C219.159 132.467 218.599 132.56 218.412 132.56C217.992 132.56 217.712 132.443 217.572 132.21C217.432 131.977 217.409 131.58 217.502 131.02L217.712 129.34C219.066 119.26 219.742 112.703 219.742 109.67C219.742 107.85 219.486 106.543 218.972 105.75C218.506 104.91 217.712 104.49 216.592 104.49C214.772 104.49 213.116 105.843 211.622 108.55C210.176 111.21 209.219 114.22 208.752 117.58ZM252.143 126.19C252.563 126.19 253.006 126.54 253.473 127.24C253.94 127.893 254.173 128.5 254.173 129.06C254.173 129.433 253.823 129.9 253.123 130.46C252.47 130.973 251.653 131.44 250.673 131.86C249.74 132.28 248.83 132.49 247.943 132.49C246.776 132.49 245.913 131.977 245.353 130.95C244.84 129.877 244.583 128.663 244.583 127.31C243.463 129.083 242.25 130.413 240.943 131.3C239.683 132.187 238.19 132.63 236.463 132.63C234.223 132.583 232.426 131.487 231.073 129.34C229.766 127.193 229.113 124.23 229.113 120.45C229.16 116.95 229.673 113.683 230.653 110.65C231.68 107.57 233.126 105.12 234.993 103.3C236.906 101.433 239.193 100.5 241.853 100.5C243.673 100.5 245.493 101.247 247.313 102.74V102.53C247.406 101.597 247.546 101.013 247.733 100.78C247.966 100.5 248.386 100.29 248.993 100.15C250.113 99.9633 250.72 99.87 250.813 99.87C251.28 99.87 251.583 99.9867 251.723 100.22C251.863 100.453 251.886 100.85 251.793 101.41C249.506 116.577 248.363 125.84 248.363 129.2C249.063 128.78 249.903 128.08 250.883 127.1C251.49 126.493 251.91 126.19 252.143 126.19ZM245.703 115.2C246.356 110.72 246.73 107.85 246.823 106.59C246.076 105.89 245.33 105.377 244.583 105.05C243.883 104.677 243.066 104.49 242.133 104.49C239.986 104.49 238.26 105.4 236.953 107.22C235.646 109.04 234.713 111.163 234.153 113.59C233.64 116.017 233.36 118.257 233.313 120.31C233.313 125.77 234.69 128.5 237.443 128.5C239.403 128.5 241.13 127.287 242.623 124.86C244.163 122.387 245.19 119.167 245.703 115.2ZM274.777 124.79C275.384 125.21 275.687 125.607 275.687 125.98C275.687 126.26 275.594 126.563 275.407 126.89C274.38 128.71 273.097 130.133 271.557 131.16C270.064 132.187 268.197 132.7 265.957 132.7C263.064 132.653 260.894 131.603 259.447 129.55C258.047 127.45 257.324 124.72 257.277 121.36C257.277 117.58 257.767 114.103 258.747 110.93C259.727 107.757 261.197 105.213 263.157 103.3C265.117 101.387 267.52 100.43 270.367 100.43C272.887 100.43 274.707 101.177 275.827 102.67C276.947 104.117 277.507 105.797 277.507 107.71C277.507 111.07 276.084 113.8 273.237 115.9C270.39 117.953 266.447 119.213 261.407 119.68V120.94C261.407 123.32 261.804 125.21 262.597 126.61C263.39 128.01 264.627 128.71 266.307 128.71C267.614 128.71 268.64 128.407 269.387 127.8C270.18 127.193 270.974 126.283 271.767 125.07C272.14 124.417 272.56 124.09 273.027 124.09C273.307 124.09 273.587 124.16 273.867 124.3L274.777 124.79ZM270.017 104.49C267.777 104.49 266.004 105.563 264.697 107.71C263.39 109.81 262.457 112.4 261.897 115.48C269.457 114.733 273.237 112.307 273.237 108.2C273.237 105.727 272.164 104.49 270.017 104.49ZM286.123 84.89C284.956 93.3833 283.813 102.693 282.693 112.82C281.573 122.9 281.013 128.803 281.013 130.53C281.013 131.277 281.083 131.79 281.223 132.07C281.409 132.35 281.759 132.49 282.273 132.49C282.413 132.49 282.809 132.443 283.463 132.35C284.163 132.163 284.606 132 284.793 131.86C285.026 131.72 285.166 131.323 285.213 130.67C285.399 126.797 285.609 123.577 285.843 121.01C286.263 116.53 286.753 111.747 287.313 106.66C287.919 101.527 288.923 93.8733 290.323 83.7C290.416 83.1867 290.393 82.8133 290.253 82.58C290.113 82.3467 289.856 82.23 289.483 82.23C289.016 82.23 288.433 82.3233 287.733 82.51C287.173 82.65 286.776 82.86 286.543 83.14C286.356 83.42 286.216 84.0033 286.123 84.89Z" fill="#0000FF" fill-opacity="0.93"/>
<path d="M307.181 84.75C311.894 84.75 315.534 85.9633 318.101 88.39C320.714 90.8167 322.021 93.99 322.021 97.91C322.021 102.53 320.434 106.31 317.261 109.25C314.134 112.19 309.467 113.707 303.261 113.8H300.881L299.061 129.9C299.014 130.787 298.851 131.37 298.571 131.65C298.337 131.883 297.894 132.093 297.241 132.28C296.541 132.467 295.981 132.56 295.561 132.56C295.141 132.56 294.861 132.443 294.721 132.21C294.627 132.023 294.627 131.65 294.721 131.09L299.411 89.3C297.264 89.6733 295.981 89.9067 295.561 90C295.421 90.0467 295.234 90.07 295.001 90.07C294.487 90.07 294.137 89.9067 293.951 89.58C293.764 89.2067 293.671 88.5767 293.671 87.69C293.671 86.71 294.161 86.1267 295.141 85.94C297.241 85.52 299.154 85.2167 300.881 85.03C302.654 84.8433 304.754 84.75 307.181 84.75ZM303.331 109.53C308.184 109.437 311.777 108.363 314.111 106.31C316.444 104.257 317.611 101.503 317.611 98.05C317.611 95.2033 316.701 92.9633 314.881 91.33C313.107 89.65 310.681 88.81 307.601 88.81C305.734 88.81 304.404 88.8333 303.611 88.88L301.301 109.46L303.331 109.53Z" fill="white" fill-opacity="0.93"/>
<path d="M338.958 84.89C342.551 84.89 345.748 85.9167 348.548 87.97C349.061 88.3433 349.318 88.74 349.318 89.16C349.318 89.5333 349.084 90.0467 348.618 90.7C348.058 91.4467 347.568 91.82 347.148 91.82C346.868 91.82 346.518 91.68 346.098 91.4C344.791 90.6067 343.578 90.0233 342.458 89.65C341.384 89.2767 340.124 89.09 338.678 89.09C336.484 89.1367 334.711 89.7433 333.358 90.91C332.051 92.0767 331.398 93.7567 331.398 95.95C331.398 97.7233 331.911 99.2633 332.938 100.57C334.011 101.83 335.644 103.37 337.838 105.19L339.448 106.52C342.201 108.807 344.394 111.047 346.028 113.24C347.708 115.433 348.548 117.977 348.548 120.87C348.548 124.463 347.404 127.333 345.118 129.48C342.878 131.627 339.914 132.7 336.228 132.7C333.568 132.7 331.141 132.117 328.948 130.95C326.801 129.783 324.701 128.08 322.648 125.84C322.368 125.467 322.228 125.14 322.228 124.86C322.228 124.44 322.601 123.88 323.348 123.18C323.954 122.573 324.444 122.27 324.818 122.27C325.144 122.27 325.471 122.433 325.798 122.76C327.664 124.72 329.368 126.143 330.908 127.03C332.494 127.917 334.244 128.36 336.158 128.36C338.538 128.36 340.474 127.73 341.968 126.47C343.461 125.21 344.208 123.367 344.208 120.94C344.208 119.4 343.834 117.977 343.088 116.67C342.388 115.363 341.571 114.267 340.638 113.38C339.751 112.447 338.491 111.303 336.858 109.95L335.318 108.69C333.498 107.15 332.028 105.843 330.908 104.77C329.834 103.697 328.924 102.413 328.178 100.92C327.431 99.38 327.058 97.6533 327.058 95.74C327.058 92.38 328.178 89.7433 330.418 87.83C332.704 85.87 335.551 84.89 338.958 84.89Z" fill="#FF0000"/>
<path d="M30.1116 108.479L49.091 105.188L39.1186 112.289C38.0109 113.345 38.7905 115.125 40.3433 115.125H64.6949C63.6562 112.382 63.082 109.483 63.082 106.494V102.103L49.9986 93.0555C47.3962 91.4075 43.9517 91.6011 41.5789 93.5109L28.7306 105.56C27.3788 106.637 28.3627 108.707 30.1116 108.479ZM90.993 112.009L79.9817 106.808C78.2048 105.966 77.084 104.246 77.084 102.356V98.5625H84.0811L87.156 100.904C87.8109 101.523 88.6967 101.875 89.6261 101.875H92.9175C94.1312 101.875 95.4456 101.163 96.0339 100.038L97.6052 97.075C98.1928 95.9498 98.0699 94.6165 97.2773 93.6072L89.132 83.3209C88.467 82.4917 87.5266 82 86.4332 82H60.4632C59.6868 82 59.3041 82.8928 59.8508 83.4099L66.4882 88.625L60.0695 91.187C59.4272 91.4976 59.4272 92.364 60.0695 92.6745L66.4882 95.25L66.4881 106.492C66.4881 113.945 70.4235 120.922 76.9843 125.062C55.596 125.761 39.3251 129.307 29.5166 131.365C28.6283 131.546 28 132.296 28 133.164C28.1014 134.172 28.976 135 30.0416 135H84.6169C91.532 135 97.6949 130.083 97.9682 123.53C98.3302 118.645 95.5746 114.183 90.993 112.009ZM81.5781 88.8579L86.5797 90.0359C86.279 91.1746 85.2129 91.9903 83.9422 91.9251C82.5185 91.8599 81.108 90.6311 81.5781 88.8579Z" fill="white"/>
<path d="M132.995 104.533C137.165 110.066 135.921 117.997 130.258 122.264C124.594 126.532 116.627 125.54 112.494 120.055C110.203 117.015 109.812 113.401 110.177 110.908C110.329 109.445 112.154 108.923 113.002 110.047L116.339 114.476C117.712 116.299 120.353 116.691 122.253 115.296C124.186 113.884 124.614 111.214 123.224 109.37C119.788 104.811 110.107 111.447 109.613 97.1103C109.565 95.5446 111.554 94.7731 112.483 96.0061C116.463 101.387 126.382 95.7566 132.995 104.533Z" fill="#FF0000"/>
</svg>
